# Blender 4.2.8 LTS
# www.blender.org
mtllib Var_1.mtl
o Base
v 5.958032 2.770259 -7.052196
v 3.831208 1.982198 -4.370203
v 5.856706 0.221544 -6.950870
v 5.958032 2.985826 -1.426758
v 3.750577 1.982198 -4.378144
v 5.856706 0.221544 -1.743650
v 1.606396 2.770259 -7.052196
v 3.673045 1.982198 -4.401663
v 1.707722 0.221544 -6.950870
v 1.606396 2.985826 -1.426758
v 1.707722 0.221544 -1.743650
v 3.601591 1.982198 -4.439856
v 1.707722 0.221544 -3.393721
v 3.538962 1.982198 -4.491255
v 5.958032 2.770259 -3.393721
v 1.606396 2.770259 -3.393721
v 3.487563 1.982198 -4.553885
v 5.856706 0.221544 -3.393721
v 1.707722 0.221544 -2.615322
v 3.449370 1.982198 -4.625339
v 5.958032 2.770259 -2.615322
v 1.606396 2.770259 -2.615322
v 3.425851 1.982198 -4.702870
v 5.856706 0.221544 -2.615322
v 1.606396 2.770259 -6.371097
v 3.417909 1.982198 -4.783501
v 5.856706 0.221544 -6.371097
v 1.707722 0.221544 -6.371097
v 5.958032 2.770259 -6.371097
v 3.425851 1.982198 -4.864132
v 1.707722 0.221544 -2.401677
v 5.958032 3.248725 -2.373941
v 3.449370 1.982198 -4.941664
v 1.606396 3.248725 -2.373941
v 5.856706 0.221544 -2.401677
v 3.487563 1.982198 -5.013118
v 1.707722 0.221544 -3.511249
v 5.958032 2.985826 -3.511249
v 3.538962 1.982198 -5.075747
v 1.606396 2.985826 -3.511249
v 5.856706 0.221544 -3.511249
v 3.601591 1.982198 -5.127146
v 1.606396 2.985826 -6.233981
v 3.673045 1.982198 -5.165339
v 5.856706 0.221544 -6.233981
v 1.707722 0.221544 -6.233981
v 3.750577 1.982198 -5.188858
v 5.958032 2.985826 -6.233981
v 1.606396 0.221544 -2.401677
v 1.606396 0.221544 -1.642324
v 3.831208 1.982198 -5.196800
v 5.958032 0.221544 -7.052196
v 1.606396 0.221544 -7.052196
v 3.911838 1.982198 -5.188858
v 5.958032 0.221544 -1.642324
v 5.958032 0.221544 -6.371097
v 3.989370 1.982198 -5.165339
v 1.606396 0.221544 -3.511249
v 4.060824 1.982198 -5.127146
v 1.606396 0.221544 -3.393721
v 5.958032 0.221544 -2.615322
v 5.958032 0.221544 -3.393721
v 4.123454 1.982198 -5.075747
v 1.606396 0.221544 -2.615322
v 5.958032 0.221544 -2.401677
v 4.174853 1.982198 -5.013118
v 5.958032 0.221544 -6.233981
v 4.213046 1.982198 -4.941664
v 1.606396 0.221544 -6.371097
v 1.606396 0.221544 -6.233981
v 4.236565 1.982198 -4.864132
v 5.958032 0.221544 -3.511249
v 1.707722 0.031174 -2.401677
v 4.244506 1.982198 -4.783501
v 1.707722 0.031174 -1.743650
v 5.856706 0.031174 -6.950870
v 1.707722 0.031174 -6.950870
v 4.236565 1.982198 -4.702870
v 5.856706 0.031174 -1.743650
v 4.213046 1.982198 -4.625339
v 5.856706 0.031174 -6.371097
v 1.707722 0.031174 -3.511249
v 4.174853 1.982198 -4.553885
v 1.707722 0.031174 -3.393721
v 5.856706 0.031174 -2.615322
v 5.856706 0.031174 -3.393721
v 4.123454 1.982198 -4.491255
v 1.707722 0.031174 -2.615322
v 5.856706 0.031174 -2.401677
v 4.060824 1.982198 -4.439856
v 5.856706 0.031174 -6.233981
v 1.707722 0.031174 -6.371097
v 3.989370 1.982198 -4.401663
v 1.707722 0.031174 -6.233981
v 5.856706 0.031174 -3.511249
v 3.911838 1.982198 -4.378144
v 3.417909 2.985826 -4.783501
v 3.425851 2.985826 -4.702870
v 3.425851 2.985826 -4.864132
v 3.449370 2.985826 -4.941664
v 3.538962 2.985826 -5.075747
v 3.487563 2.985826 -5.013118
v 3.673045 2.985826 -5.165339
v 3.831208 2.985826 -5.196800
v 3.750577 2.985826 -5.188858
v 3.989370 2.985826 -5.165339
v 4.060824 2.985826 -5.127146
v 3.911838 2.985826 -5.188858
v 3.601591 2.985826 -5.127146
v 3.487563 2.985826 -4.553885
v 3.449370 2.985826 -4.625339
v 3.601591 2.985826 -4.439856
v 3.538962 2.985826 -4.491255
v 3.750577 2.985826 -4.378144
v 3.911838 2.985826 -4.378144
v 3.989370 2.985826 -4.401663
v 3.831208 2.985826 -4.370203
v 3.673045 2.985826 -4.401663
v 4.123454 2.985826 -4.491255
v 4.174853 2.985826 -5.013118
v 4.174853 2.985826 -4.553885
v 4.123454 2.985826 -5.075747
v 4.244506 2.985826 -4.783501
v 4.236565 2.985826 -4.864132
v 4.213046 2.985826 -4.625339
v 4.236565 2.985826 -4.702870
v 4.213046 2.985826 -4.941664
v 4.060824 2.985826 -4.439856
vn -0.0000 0.9636 0.2674
vn -0.0000 -0.0777 0.9970
vn -0.0000 -0.0000 -1.0000
vn -0.0000 0.4787 0.8780
vn -0.0000 1.0000 -0.0000
vn -0.0000 0.4504 -0.8928
vn -0.0000 0.5367 -0.8438
vn 1.0000 -0.0000 -0.0000
vn -1.0000 -0.0000 -0.0000
vn -0.0000 -1.0000 -0.0000
vn -0.0000 -0.0000 1.0000
vn 0.1951 -0.0000 -0.9808
vn 0.3827 -0.0000 -0.9239
vn 0.5556 -0.0000 -0.8315
vn 0.7071 -0.0000 -0.7071
vn 0.8315 -0.0000 -0.5556
vn 0.9239 -0.0000 -0.3827
vn 0.9808 -0.0000 -0.1951
vn 0.9808 -0.0000 0.1951
vn 0.9239 -0.0000 0.3827
vn 0.8315 -0.0000 0.5556
vn 0.7071 -0.0000 0.7071
vn 0.5556 -0.0000 0.8315
vn 0.3827 -0.0000 0.9239
vn 0.1951 -0.0000 0.9808
vn -0.1951 -0.0000 0.9808
vn -0.3827 -0.0000 0.9239
vn -0.5556 -0.0000 0.8315
vn -0.7071 -0.0000 0.7071
vn -0.8315 -0.0000 0.5556
vn -0.9239 -0.0000 0.3827
vn -0.9808 -0.0000 0.1951
vn -0.9808 -0.0000 -0.1951
vn -0.9239 -0.0000 -0.3827
vn -0.8315 -0.0000 -0.5556
vn -0.7071 -0.0000 -0.7071
vn -0.5556 -0.0000 -0.8315
vn -0.3827 -0.0000 -0.9239
vn -0.1951 -0.0000 -0.9808
vt 0.625000 0.714909
vt 0.875000 0.714909
vt 0.875000 0.750000
vt 0.625000 0.750000
vt 0.375000 0.750000
vt 0.625000 1.000000
vt 0.375000 1.000000
vt 0.375000 0.250000
vt 0.625000 0.250000
vt 0.625000 0.500000
vt 0.375000 0.500000
vt 0.625000 0.663634
vt 0.875000 0.663634
vt 0.875000 0.669065
vt 0.625000 0.669065
vt 0.875000 0.705036
vt 0.625000 0.705036
vt 0.875000 0.500000
vt 0.875000 0.531475
vt 0.625000 0.531475
vt 0.766928 0.615452
vt 0.727443 0.615452
vt 0.730396 0.618346
vt 0.733994 0.620721
vt 0.738099 0.622486
vt 0.742553 0.623573
vt 0.747185 0.623940
vt 0.751818 0.623573
vt 0.756272 0.622486
vt 0.760377 0.620721
vt 0.763975 0.618346
vt 0.625000 0.537811
vt 0.875000 0.537811
vt 0.769122 0.612149
vt 0.770473 0.608567
vt 0.770929 0.604840
vt 0.770473 0.601114
vt 0.769122 0.597531
vt 0.766928 0.594229
vt 0.763975 0.591335
vt 0.760377 0.588960
vt 0.756272 0.587195
vt 0.751818 0.586108
vt 0.747185 0.585741
vt 0.742553 0.586108
vt 0.738099 0.587195
vt 0.733994 0.588960
vt 0.730396 0.591335
vt 0.727443 0.594230
vt 0.725249 0.597531
vt 0.723898 0.601114
vt 0.723441 0.604840
vt 0.723898 0.608567
vt 0.725249 0.612149
vt 0.375000 0.714909
vt 0.375000 0.705036
vt 0.375000 0.669065
vt 0.375000 0.663634
vt 0.375000 0.537811
vt 0.375000 0.531475
vt 0.375000 0.000000
vt 0.625000 0.000000
vt 0.625000 0.035091
vt 0.625000 0.044964
vt 0.625000 0.080935
vt 0.625000 0.086366
vt 0.625000 0.212189
vt 0.625000 0.218525
vt 0.375000 0.218525
vt 0.375000 0.212189
vt 0.375000 0.086366
vt 0.375000 0.080935
vt 0.375000 0.044964
vt 0.375000 0.035091
vt 0.369179 0.504682
vt 0.130821 0.504683
vt 0.125000 0.500000
vt 0.130821 0.745318
vt 0.369179 0.745318
vt 0.125000 0.750000
vt 0.369179 0.714909
vt 0.369179 0.705036
vt 0.369179 0.669065
vt 0.369179 0.663634
vt 0.369179 0.537811
vt 0.369179 0.531475
vt 0.130821 0.531475
vt 0.130821 0.714909
vt 0.130821 0.705036
vt 0.130821 0.669065
vt 0.130821 0.663633
vt 0.130821 0.537811
vt 0.125000 0.714909
vt 0.125000 0.705036
vt 0.125000 0.669065
vt 0.125000 0.663634
vt 0.125000 0.537811
vt 0.125000 0.531475
vt 0.000000 0.000000
s 0
usemtl Material
f 32/1/1 34/2/1 10/3/1 4/4/1
f 55/5/2 4/4/2 10/6/2 50/7/2
f 53/8/3 7/9/3 1/10/3 52/11/3
f 38/12/4 40/13/4 16/14/4 15/15/4
f 15/15/5 16/14/5 22/16/5 21/17/5
f 1/10/5 7/18/5 25/19/5 29/20/5
f 21/17/6 22/16/6 34/2/6 32/1/6
f 110/21/5 40/13/5 38/12/5 121/22/5 119/23/5 128/24/5 116/25/5 115/26/5 117/27/5 114/28/5 118/29/5 112/30/5 113/31/5
f 121/22/5 38/12/5 48/32/5 43/33/5 40/13/5 110/21/5 111/34/5 98/35/5 97/36/5 99/37/5 100/38/5 102/39/5 101/40/5 109/41/5 103/42/5 105/43/5 104/44/5 108/45/5 106/46/5 107/47/5 122/48/5 120/49/5 127/50/5 124/51/5 123/52/5 126/53/5 125/54/5
f 29/20/7 25/19/7 43/33/7 48/32/7
f 21/17/8 32/1/8 4/4/8 55/5/8 65/55/8 61/56/8 62/57/8 72/58/8 67/59/8 56/60/8 52/11/8 1/10/8 29/20/8 48/32/8 38/12/8 15/15/8
f 50/61/9 10/62/9 34/63/9 22/64/9 16/65/9 40/66/9 43/67/9 25/68/9 7/9/9 53/8/9 69/69/9 70/70/9 58/71/9 60/72/9 64/73/9 49/74/9
f 3/75/10 9/76/10 53/77/10 52/11/10
f 11/78/10 6/79/10 55/5/10 50/80/10
f 55/5/10 6/79/10 35/81/10 24/82/10 18/83/10 41/84/10 45/85/10 27/86/10 3/75/10 52/11/10 56/60/10 67/59/10 72/58/10 62/57/10 61/56/10 65/55/10
f 92/87/10 77/76/10 76/75/10 81/86/10 91/85/10 95/84/10 86/83/10 85/82/10 89/81/10 79/79/10 75/78/10 73/88/10 88/89/10 84/90/10 82/91/10 94/92/10
f 9/76/3 3/75/3 76/75/3 77/76/3
f 53/77/10 9/76/10 28/87/10 46/92/10 37/91/10 13/90/10 19/89/10 31/88/10 11/78/10 50/80/10 49/93/10 64/94/10 60/95/10 58/96/10 70/97/10 69/98/10
f 6/79/11 11/78/11 75/78/11 79/79/11
f 75/78/9 11/78/9 31/88/9 19/89/9 13/90/9 37/91/9 46/92/9 28/87/9 9/76/9 77/76/9 92/87/9 94/92/9 82/91/9 84/90/9 88/89/9 73/88/9
f 76/75/8 3/75/8 27/86/8 45/85/8 41/84/8 18/83/8 24/82/8 35/81/8 6/79/8 79/79/8 89/81/8 85/82/8 86/83/8 95/84/8 91/85/8 81/86/8
s 1
f 2/99/3 5/99/12 114/99/12 117/99/3
f 5/99/12 8/99/13 118/99/13 114/99/12
f 8/99/13 12/99/14 112/99/14 118/99/13
f 12/99/14 14/99/15 113/99/15 112/99/14
f 113/99/15 14/99/15 17/99/16 110/99/16
f 110/99/16 17/99/16 20/99/17 111/99/17
f 111/99/17 20/99/17 23/99/18 98/99/18
f 98/99/18 23/99/18 26/99/8 97/99/8
f 97/99/8 26/99/8 30/99/19 99/99/19
f 99/99/19 30/99/19 33/99/20 100/99/20
f 100/99/20 33/99/20 36/99/21 102/99/21
f 102/99/21 36/99/21 39/99/22 101/99/22
f 101/99/22 39/99/22 42/99/23 109/99/23
f 109/99/23 42/99/23 44/99/24 103/99/24
f 103/99/24 44/99/24 47/99/25 105/99/25
f 105/99/25 47/99/25 51/99/11 104/99/11
f 104/99/11 51/99/11 54/99/26 108/99/26
f 108/99/26 54/99/26 57/99/27 106/99/27
f 106/99/27 57/99/27 59/99/28 107/99/28
f 107/99/28 59/99/28 63/99/29 122/99/29
f 63/99/29 66/99/30 120/99/30 122/99/29
f 66/99/30 68/99/31 127/99/31 120/99/30
f 68/99/31 71/99/32 124/99/32 127/99/31
f 71/99/32 74/99/9 123/99/9 124/99/32
f 74/99/9 78/99/33 126/99/33 123/99/9
f 78/99/33 80/99/34 125/99/34 126/99/33
f 80/99/34 83/99/35 121/99/35 125/99/34
f 83/99/35 87/99/36 119/99/36 121/99/35
f 87/99/36 90/99/37 128/99/37 119/99/36
f 90/99/37 93/99/38 116/99/38 128/99/37
f 83/99/5 80/99/5 78/99/5 74/99/5 71/99/5 68/99/5 66/99/5 63/99/5 59/99/5 57/99/5 54/99/5 51/99/5 47/99/5 44/99/5 42/99/5 39/99/5 36/99/5 33/99/5 30/99/5 26/99/5 23/99/5 20/99/5 17/99/5 14/99/5 12/99/5 8/99/5 5/99/5 2/99/5 96/99/5 93/99/5 90/99/5 87/99/5
f 93/99/38 96/99/39 115/99/39 116/99/38
f 96/99/39 2/99/3 117/99/3 115/99/39
o X01
v 3.831208 3.051730 -4.370203
v 3.831208 1.926442 -4.370203
v 3.750577 3.051730 -4.378144
v 3.750577 1.926442 -4.378144
v 3.673045 3.051730 -4.401663
v 3.673045 1.926442 -4.401663
v 3.601591 3.051730 -4.439856
v 3.601591 1.926442 -4.439856
v 3.538962 3.051730 -4.491255
v 3.538962 1.926442 -4.491255
v 3.487563 3.051730 -4.553885
v 3.487563 1.926442 -4.553885
v 3.449370 3.051730 -4.625339
v 3.449370 1.926442 -4.625339
v 3.425851 3.051730 -4.702871
v 3.425851 1.926442 -4.702871
v 3.417909 3.051730 -4.783501
v 3.417909 1.926442 -4.783501
v 3.425851 3.051730 -4.864131
v 3.425851 1.926442 -4.864131
v 3.449370 3.051730 -4.941664
v 3.449370 1.926442 -4.941664
v 3.487563 3.051730 -5.013117
v 3.487563 1.926442 -5.013117
v 3.538962 3.051730 -5.075747
v 3.538962 1.926442 -5.075747
v 3.601591 3.051730 -5.127146
v 3.601591 1.926442 -5.127146
v 3.673045 3.051730 -5.165339
v 3.673045 1.926442 -5.165339
v 3.750577 3.051730 -5.188858
v 3.750577 1.926442 -5.188858
v 3.831208 3.051730 -5.196800
v 3.831208 1.926442 -5.196800
v 3.911838 3.051730 -5.188858
v 3.911838 1.926442 -5.188858
v 3.989370 3.051730 -5.165339
v 3.989370 1.926442 -5.165339
v 4.060824 3.051730 -5.127146
v 4.060824 1.926442 -5.127146
v 4.123454 3.051730 -5.075747
v 4.123454 1.926442 -5.075747
v 4.174853 3.051730 -5.013117
v 4.174853 1.926442 -5.013117
v 4.213046 3.051730 -4.941664
v 4.213046 1.926442 -4.941664
v 4.236565 3.051730 -4.864131
v 4.236565 1.926442 -4.864131
v 4.244506 3.051730 -4.783501
v 4.244506 1.926442 -4.783501
v 4.236565 3.051730 -4.702871
v 4.236565 1.926442 -4.702871
v 4.213046 3.051730 -4.625339
v 4.213046 1.926442 -4.625339
v 4.174853 3.051730 -4.553885
v 4.174853 1.926442 -4.553885
v 4.123454 3.051730 -4.491255
v 4.123454 1.926442 -4.491255
v 4.060824 3.051730 -4.439856
v 4.060824 1.926442 -4.439856
v 3.989370 3.051730 -4.401663
v 3.989370 1.926442 -4.401663
v 3.911838 3.051730 -4.378144
v 3.911838 1.926442 -4.378144
v 3.562593 3.367393 -5.042123
v 4.087320 3.367393 -5.042123
v 3.562593 3.367393 -4.517396
v 4.087320 3.367393 -4.517396
v 3.562593 3.418577 -4.522438
v 4.087320 3.418577 -4.522438
v 3.562593 3.467795 -4.537367
v 4.087320 3.467795 -4.537367
v 3.562593 3.513154 -4.561613
v 4.087320 3.513154 -4.561613
v 3.562593 3.552912 -4.594241
v 4.087320 3.552912 -4.594241
v 3.562593 3.585540 -4.633998
v 4.087320 3.585540 -4.633998
v 3.562593 3.609785 -4.679358
v 4.087320 3.609785 -4.679358
v 3.562593 3.624715 -4.728575
v 4.087320 3.624715 -4.728575
v 3.562593 3.629756 -4.779760
v 4.087320 3.629756 -4.779760
v 3.562593 3.624715 -4.830945
v 4.087320 3.624715 -4.830945
v 3.562593 3.609785 -4.880162
v 4.087320 3.609785 -4.880162
v 3.562593 3.585540 -4.925521
v 4.087320 3.585540 -4.925521
v 3.562593 3.552912 -4.965279
v 4.087320 3.552912 -4.965279
v 3.562593 3.513154 -4.997907
v 4.087320 3.513154 -4.997907
v 3.562593 3.467795 -5.022152
v 4.087320 3.467795 -5.022152
v 3.562593 3.418577 -5.037082
v 4.087320 3.418577 -5.037082
v 3.562593 2.589105 -5.042123
v 4.087320 2.589105 -5.042123
v 4.087320 2.589105 -4.517396
v 3.562593 2.589105 -4.517396
vn -0.0000 -0.0000 1.0000
vn -0.1951 -0.0000 0.9808
vn -0.3827 -0.0000 0.9239
vn -0.5556 -0.0000 0.8315
vn -0.7071 -0.0000 0.7071
vn -0.8315 -0.0000 0.5556
vn -0.9239 -0.0000 0.3827
vn -0.9808 -0.0000 0.1951
vn -1.0000 -0.0000 -0.0000
vn -0.9808 -0.0000 -0.1951
vn -0.9239 -0.0000 -0.3827
vn -0.8315 -0.0000 -0.5556
vn -0.7071 -0.0000 -0.7071
vn -0.5556 -0.0000 -0.8315
vn -0.3827 -0.0000 -0.9239
vn -0.1951 -0.0000 -0.9808
vn -0.0000 -0.0000 -1.0000
vn 0.1951 -0.0000 -0.9808
vn 0.3827 -0.0000 -0.9239
vn 0.5556 -0.0000 -0.8315
vn 0.7071 -0.0000 -0.7071
vn 0.8315 -0.0000 -0.5556
vn 0.9239 -0.0000 -0.3827
vn 0.9808 -0.0000 -0.1951
vn 1.0000 -0.0000 -0.0000
vn 0.9808 -0.0000 0.1951
vn 0.9239 -0.0000 0.3827
vn 0.8315 -0.0000 0.5556
vn 0.7071 -0.0000 0.7071
vn 0.5556 -0.0000 0.8315
vn 0.3827 -0.0000 0.9239
vn -0.0000 -1.0000 -0.0000
vn 0.1951 -0.0000 0.9808
vn -0.0000 1.0000 -0.0000
vn -0.0000 0.0491 0.9988
vn -0.0000 0.1951 0.9808
vn -0.0000 0.3827 0.9239
vn -0.0000 0.5556 0.8315
vn -0.0000 0.7071 0.7071
vn -0.0000 0.8315 0.5556
vn -0.0000 0.9239 0.3827
vn -0.0000 0.9808 0.1951
vn -0.0000 0.9808 -0.1951
vn -0.0000 0.9239 -0.3827
vn -0.0000 0.8315 -0.5556
vn -0.0000 0.7071 -0.7071
vn -0.0000 0.5556 -0.8315
vn -0.0000 0.3827 -0.9239
vn -0.0000 0.1951 -0.9808
vn -0.0000 0.0491 -0.9988
vt 1.000000 0.500000
vt 1.000000 1.000000
vt 0.968750 1.000000
vt 0.968750 0.500000
vt 0.937500 1.000000
vt 0.937500 0.500000
vt 0.906250 1.000000
vt 0.906250 0.500000
vt 0.875000 1.000000
vt 0.875000 0.500000
vt 0.843750 1.000000
vt 0.843750 0.500000
vt 0.812500 1.000000
vt 0.812500 0.500000
vt 0.781250 1.000000
vt 0.781250 0.500000
vt 0.750000 1.000000
vt 0.750000 0.500000
vt 0.718750 1.000000
vt 0.718750 0.500000
vt 0.687500 1.000000
vt 0.687500 0.500000
vt 0.656250 1.000000
vt 0.656250 0.500000
vt 0.625000 1.000000
vt 0.625000 0.500000
vt 0.593750 1.000000
vt 0.593750 0.500000
vt 0.562500 1.000000
vt 0.562500 0.500000
vt 0.531250 1.000000
vt 0.531250 0.500000
vt 0.500000 1.000000
vt 0.500000 0.500000
vt 0.468750 1.000000
vt 0.468750 0.500000
vt 0.437500 1.000000
vt 0.437500 0.500000
vt 0.406250 1.000000
vt 0.406250 0.500000
vt 0.375000 1.000000
vt 0.375000 0.500000
vt 0.343750 1.000000
vt 0.343750 0.500000
vt 0.312500 1.000000
vt 0.312500 0.500000
vt 0.281250 1.000000
vt 0.281250 0.500000
vt 0.250000 1.000000
vt 0.250000 0.500000
vt 0.218750 1.000000
vt 0.218750 0.500000
vt 0.187500 1.000000
vt 0.187500 0.500000
vt 0.156250 1.000000
vt 0.156250 0.500000
vt 0.125000 1.000000
vt 0.125000 0.500000
vt 0.093750 1.000000
vt 0.093750 0.500000
vt 0.062500 1.000000
vt 0.062500 0.500000
vt 0.296822 0.485388
vt 0.250000 0.490000
vt 0.203178 0.485388
vt 0.158156 0.471731
vt 0.116663 0.449553
vt 0.080294 0.419706
vt 0.050447 0.383337
vt 0.028269 0.341844
vt 0.014612 0.296822
vt 0.010000 0.250000
vt 0.014612 0.203178
vt 0.028269 0.158156
vt 0.050447 0.116663
vt 0.080294 0.080294
vt 0.116663 0.050447
vt 0.158156 0.028269
vt 0.203178 0.014612
vt 0.250000 0.010000
vt 0.296822 0.014612
vt 0.341844 0.028269
vt 0.383337 0.050447
vt 0.419706 0.080294
vt 0.449553 0.116663
vt 0.471731 0.158156
vt 0.485388 0.203178
vt 0.490000 0.250000
vt 0.485388 0.296822
vt 0.471731 0.341844
vt 0.449553 0.383337
vt 0.419706 0.419706
vt 0.383337 0.449553
vt 0.341844 0.471731
vt 0.031250 1.000000
vt 0.031250 0.500000
vt 0.000000 1.000000
vt 0.000000 0.500000
vt 0.750000 0.490000
vt 0.703178 0.485388
vt 0.658156 0.471731
vt 0.616663 0.449553
vt 0.580294 0.419706
vt 0.550447 0.383337
vt 0.528269 0.341844
vt 0.514612 0.296822
vt 0.510000 0.250000
vt 0.514612 0.203178
vt 0.528269 0.158156
vt 0.550447 0.116663
vt 0.580294 0.080294
vt 0.616663 0.050447
vt 0.658156 0.028269
vt 0.703178 0.014612
vt 0.750000 0.010000
s 1
f 129/100/40 131/103/41 132/102/41 130/101/40
f 131/103/41 133/105/42 134/104/42 132/102/41
f 133/105/42 135/107/43 136/106/43 134/104/42
f 135/107/43 137/109/44 138/108/44 136/106/43
f 137/109/44 139/111/45 140/110/45 138/108/44
f 139/111/45 141/113/46 142/112/46 140/110/45
f 141/113/46 143/115/47 144/114/47 142/112/46
f 143/115/47 145/117/48 146/116/48 144/114/47
f 145/117/48 147/119/49 148/118/49 146/116/48
f 147/119/49 149/121/50 150/120/50 148/118/49
f 149/121/50 151/123/51 152/122/51 150/120/50
f 151/123/51 153/125/52 154/124/52 152/122/51
f 153/125/52 155/127/53 156/126/53 154/124/52
f 155/127/53 157/129/54 158/128/54 156/126/53
f 157/129/54 159/131/55 160/130/55 158/128/54
f 159/131/55 161/133/56 162/132/56 160/130/55
f 161/133/56 163/135/57 164/134/57 162/132/56
f 163/135/57 165/137/58 166/136/58 164/134/57
f 165/137/58 167/139/59 168/138/59 166/136/58
f 167/139/59 169/141/60 170/140/60 168/138/59
f 169/141/60 171/143/61 172/142/61 170/140/60
f 171/143/61 173/145/62 174/144/62 172/142/61
f 173/145/62 175/147/63 176/146/63 174/144/62
f 175/147/63 177/149/64 178/148/64 176/146/63
f 177/149/64 179/151/65 180/150/65 178/148/64
f 179/151/65 181/153/66 182/152/66 180/150/65
f 181/153/66 183/155/67 184/154/67 182/152/66
f 183/155/67 185/157/68 186/156/68 184/154/67
f 185/157/68 187/159/69 188/158/69 186/156/68
f 187/159/69 189/161/70 190/160/70 188/158/69
f 132/162/71 134/193/71 136/192/71 138/191/71 140/190/71 142/189/71 144/188/71 146/187/71 148/186/71 150/185/71 152/184/71 154/183/71 156/182/71 158/181/71 160/180/71 162/179/71 164/178/71 166/177/71 168/176/71 170/175/71 172/174/71 174/173/71 176/172/71 178/171/71 180/170/71 182/169/71 184/168/71 186/167/71 188/166/71 190/165/71 192/164/71 130/163/71
f 189/161/70 191/195/72 192/194/72 190/160/70
f 191/195/72 129/197/40 130/196/40 192/194/72
f 129/197/73 191/195/73 189/161/73 187/159/73 185/157/73 183/155/73 181/153/73 179/151/73 177/149/73 175/147/73 173/145/73 171/143/73 169/141/73 167/139/73 165/137/73 163/135/73 161/133/73 159/131/73 157/129/73 155/127/73 153/125/73 151/123/73 149/121/73 147/119/73 145/117/73 143/115/73 141/113/73 139/111/73 137/109/73 135/107/73 133/105/73 131/103/73
f 195/133/74 196/132/74 198/134/75 197/135/75
f 197/135/75 198/134/75 200/136/76 199/137/76
f 199/137/76 200/136/76 202/138/77 201/139/77
f 201/139/77 202/138/77 204/140/78 203/141/78
f 203/141/78 204/140/78 206/142/79 205/143/79
f 205/143/79 206/142/79 208/144/80 207/145/80
f 207/145/80 208/144/80 210/146/81 209/147/81
f 209/147/81 210/146/81 212/148/73 211/149/73
f 211/149/73 212/148/73 214/150/82 213/151/82
f 213/151/82 214/150/82 216/152/83 215/153/83
f 215/153/83 216/152/83 218/154/84 217/155/84
f 217/155/84 218/154/84 220/156/85 219/157/85
f 219/157/85 220/156/85 222/158/86 221/159/86
f 221/159/86 222/158/86 224/160/87 223/161/87
f 223/161/87 224/160/87 226/194/88 225/195/88
f 225/195/88 226/194/88 194/196/89 193/197/89
f 193/198/48 195/214/48 197/213/48 199/212/48 201/211/48 203/210/48 205/209/48 207/208/48 209/207/48 211/206/48 213/205/48 215/204/48 217/203/48 219/202/48 221/201/48 223/200/48 225/199/48
f 196/179/64 194/163/64 226/164/64 224/165/64 222/166/64 220/167/64 218/168/64 216/169/64 214/170/64 212/171/64 210/172/64 208/173/64 206/174/64 204/175/64 202/176/64 200/177/64 198/178/64
f 193/197/89 194/196/89 228/196/56 227/197/56
f 227/198/71 228/163/71 229/132/71 230/214/71
f 194/163/64 196/179/64 229/179/64 228/163/64
f 196/132/74 195/133/74 230/133/40 229/132/40
f 195/214/48 193/198/48 227/198/48 230/214/48
o X02
v 3.510173 3.360538 -4.398715
v 4.210880 4.585086 -3.722811
v 2.206063 5.360538 -3.273080
v 4.181705 4.587960 -3.722811
v 3.527526 3.360538 -5.251010
v 2.760814 5.360538 -6.672451
v 4.138970 3.360538 -4.394760
v 4.153652 4.596469 -3.722811
v 5.300571 5.360538 -3.273080
v 4.130428 3.360538 -5.251010
v 4.127798 4.610289 -3.722811
v 4.760814 5.360538 -6.672451
v 2.760814 3.858088 -2.851125
v 4.105136 4.628887 -3.722811
v 2.760814 5.070941 -2.676204
v 4.760814 5.070941 -2.676204
v 4.086538 4.651548 -3.722811
v 4.760814 3.858088 -2.851125
v 3.100532 5.020820 -9.108856
v 4.072719 4.677402 -3.722811
v 3.100532 3.700256 -9.108856
v 4.421096 3.700256 -9.108856
v 4.064209 4.705456 -3.722811
v 4.421096 5.020820 -9.108856
v 3.492716 3.360538 -4.740477
v 4.061336 4.734631 -3.722811
v 2.206063 5.360538 -4.987676
v 4.064209 4.763805 -3.722811
v 4.175652 3.360538 -4.744267
v 5.300571 5.360538 -4.987676
v 2.206063 3.360538 -5.074369
v 4.072719 4.791859 -3.722811
v 2.206063 3.360538 -3.448002
v 4.086538 4.817713 -3.722811
v 4.760814 3.360538 -6.672451
v 2.760814 3.360538 -6.672451
v 5.300571 3.360538 -5.074369
v 4.105136 4.840375 -3.722811
v 5.300571 3.360538 -3.448002
v 3.492716 3.722913 -4.740477
v 4.127798 4.858973 -3.722811
v 3.510173 3.722913 -4.398715
v 4.153652 4.872792 -3.722811
v 4.130428 3.722913 -5.251010
v 3.527526 3.722913 -5.251010
v 4.175652 3.722913 -4.744267
v 4.181705 4.881302 -3.722811
v 4.138970 3.722913 -4.394760
v 4.210880 4.884175 -3.722811
v 4.240055 4.881302 -3.722811
v 4.268108 4.872792 -3.722811
v 4.293963 4.858973 -3.722811
v 4.316624 4.840375 -3.722811
v 4.335222 4.817713 -3.722811
v 4.349041 4.791859 -3.722811
v 4.357552 4.763805 -3.722811
v 4.360425 4.734631 -3.722811
v 4.357552 4.705456 -3.722811
v 4.349041 4.677402 -3.722811
v 4.335222 4.651548 -3.722811
v 4.316624 4.628887 -3.722811
v 4.293963 4.610289 -3.722811
v 4.268108 4.596469 -3.722811
v 4.240055 4.587960 -3.722811
v 3.300703 4.585086 -3.722812
v 3.271528 4.587960 -3.722812
v 3.243475 4.596470 -3.722812
v 3.217621 4.610289 -3.722812
v 3.194959 4.628887 -3.722812
v 3.176362 4.651548 -3.722812
v 3.162542 4.677402 -3.722812
v 3.154032 4.705456 -3.722812
v 3.151159 4.734631 -3.722812
v 3.154032 4.763806 -3.722812
v 3.162542 4.791859 -3.722812
v 3.176362 4.817714 -3.722812
v 3.194959 4.840375 -3.722812
v 3.217621 4.858973 -3.722812
v 3.243475 4.872792 -3.722812
v 3.271528 4.881302 -3.722812
v 3.300703 4.884176 -3.722812
v 3.329878 4.881302 -3.722812
v 3.357932 4.872792 -3.722812
v 3.383786 4.858973 -3.722812
v 3.406447 4.840375 -3.722812
v 3.425045 4.817714 -3.722812
v 3.438864 4.791859 -3.722812
v 3.447374 4.763806 -3.722812
v 3.450248 4.734631 -3.722812
v 3.447374 4.705456 -3.722812
v 3.438864 4.677402 -3.722812
v 3.425045 4.651548 -3.722812
v 3.406447 4.628887 -3.722812
v 3.383786 4.610289 -3.722812
v 3.357932 4.596470 -3.722812
v 3.329878 4.587960 -3.722812
v 3.151159 4.734631 -9.108856
v 3.162542 4.677402 -9.108856
v 3.154032 4.705456 -9.108856
v 3.154032 4.763805 -9.108856
v 3.162542 4.791859 -9.108856
v 3.176362 4.651548 -9.108856
v 3.176362 4.817713 -9.108856
v 3.194959 4.628887 -9.108856
v 3.194959 4.840375 -9.108856
v 3.217621 4.610289 -9.108856
v 3.217621 4.858973 -9.108856
v 3.243475 4.596469 -9.108856
v 3.243475 4.872792 -9.108856
v 3.271528 4.587960 -9.108856
v 3.271528 4.881302 -9.108856
v 3.329878 4.587960 -9.108856
v 3.329878 4.881302 -9.108856
v 3.357932 4.596469 -9.108856
v 3.357932 4.872792 -9.108856
v 3.300703 4.585086 -9.108856
v 3.300703 4.884175 -9.108856
v 3.383786 4.610289 -9.108856
v 3.406447 4.628887 -9.108856
v 3.406447 4.840375 -9.108856
v 3.425045 4.651548 -9.108856
v 3.425045 4.817713 -9.108856
v 3.447374 4.705456 -9.108856
v 3.447374 4.763805 -9.108856
v 3.450248 4.734631 -9.108856
v 4.061336 4.734631 -9.108856
v 4.064209 4.705456 -9.108856
v 4.064209 4.763805 -9.108856
v 3.438864 4.677402 -9.108856
v 3.438864 4.791859 -9.108856
v 4.072719 4.677402 -9.108856
v 4.072719 4.791859 -9.108856
v 4.127798 4.858973 -9.108856
v 4.105136 4.840374 -9.108856
v 4.086538 4.817713 -9.108856
v 4.210880 4.884175 -9.108856
v 4.181705 4.881302 -9.108856
v 4.268108 4.872792 -9.108856
v 4.240055 4.881302 -9.108856
v 4.153652 4.872792 -9.108856
v 3.383786 4.858973 -9.108856
v 4.086538 4.651548 -9.108856
v 4.127798 4.610289 -9.108856
v 4.105136 4.628887 -9.108856
v 4.210880 4.585086 -9.108856
v 4.181705 4.587959 -9.108856
v 4.268108 4.596469 -9.108856
v 4.240055 4.587959 -9.108856
v 4.153652 4.596469 -9.108856
v 4.335222 4.651548 -9.108856
v 4.335222 4.817713 -9.108856
v 4.316624 4.628887 -9.108856
v 4.316624 4.840374 -9.108856
v 4.360425 4.734631 -9.108856
v 4.357552 4.763805 -9.108856
v 4.349041 4.677402 -9.108856
v 4.357552 4.705456 -9.108856
v 4.349041 4.791859 -9.108856
v 4.293963 4.858973 -9.108856
v 4.293963 4.610289 -9.108856
vn -0.9473 0.0069 -0.3202
vn -0.9904 -0.0000 -0.1381
vn 1.0000 -0.0000 -0.0000
vn -0.0000 0.8997 0.4365
vn -0.0000 1.0000 -0.0000
vn -0.0000 -0.1427 0.9898
vn 0.7333 -0.0736 0.6759
vn -0.7239 -0.0747 0.6858
vn -0.0000 -0.7681 0.6403
vn -0.0000 -0.0000 -1.0000
vn 0.9904 -0.0000 -0.1381
vn -0.0000 -0.9904 -0.1381
vn -0.0000 0.9904 -0.1381
vn 0.9499 0.0068 -0.3124
vn -1.0000 -0.0000 -0.0000
vn -0.9945 -0.0000 -0.1044
vn -0.0000 -1.0000 -0.0000
vn 0.0063 -0.0000 -1.0000
vn -0.0000 -0.0000 1.0000
vn 0.9977 -0.0000 0.0680
vn -0.9960 -0.0000 0.0889
vn 0.9987 -0.0000 -0.0510
vn 0.1951 0.9808 -0.0000
vn 0.3827 0.9239 -0.0000
vn 0.5556 0.8315 -0.0000
vn 0.7071 0.7071 -0.0000
vn 0.8315 0.5556 -0.0000
vn 0.9239 0.3827 -0.0000
vn 0.9808 0.1951 -0.0000
vn 0.9808 -0.1951 -0.0000
vn 0.9239 -0.3827 -0.0000
vn 0.8315 -0.5556 -0.0000
vn 0.7071 -0.7071 -0.0000
vn 0.5556 -0.8315 -0.0000
vn 0.3827 -0.9239 -0.0000
vn 0.1951 -0.9808 -0.0000
vn -0.1951 -0.9808 -0.0000
vn -0.3827 -0.9239 -0.0000
vn -0.5556 -0.8315 -0.0000
vn -0.7071 -0.7071 -0.0000
vn -0.8315 -0.5556 -0.0000
vn -0.9239 -0.3827 -0.0000
vn -0.9808 -0.1951 -0.0000
vn -0.9808 0.1951 -0.0000
vn -0.9239 0.3827 -0.0000
vn -0.8315 0.5556 -0.0000
vn -0.7071 0.7071 -0.0000
vn -0.5556 0.8315 -0.0000
vn -0.3827 0.9239 -0.0000
vn -0.1951 0.9808 -0.0000
vt 0.375000 0.126096
vt 0.625000 0.126096
vt 0.625000 0.250000
vt 0.375000 0.250000
vt 0.375000 0.623904
vt 0.625000 0.623904
vt 0.625000 0.750000
vt 0.375000 0.750000
vt 0.875000 0.750000
vt 0.875000 0.623904
vt 0.625000 1.000000
vt 0.375000 1.000000
vt 0.625000 0.000000
vt 0.375000 0.000000
vt 0.125000 0.750000
vt 0.625000 0.500000
vt 0.594360 0.475932
vt 0.596976 0.471038
vt 0.598587 0.465727
vt 0.599131 0.460203
vt 0.598587 0.454680
vt 0.596976 0.449369
vt 0.594360 0.444475
vt 0.590839 0.440185
vt 0.586549 0.436664
vt 0.581655 0.434048
vt 0.576344 0.432437
vt 0.570821 0.431893
vt 0.570821 0.316206
vt 0.576344 0.315662
vt 0.581655 0.314051
vt 0.586549 0.311435
vt 0.590839 0.307914
vt 0.594360 0.303624
vt 0.596976 0.298729
vt 0.598587 0.293418
vt 0.599131 0.287895
vt 0.598587 0.282372
vt 0.596976 0.277061
vt 0.594360 0.272166
vt 0.375000 0.500000
vt 0.590839 0.267876
vt 0.586549 0.264356
vt 0.581655 0.261739
vt 0.576344 0.260128
vt 0.570821 0.259584
vt 0.565297 0.260128
vt 0.559987 0.261739
vt 0.555092 0.264356
vt 0.550802 0.267876
vt 0.547281 0.272166
vt 0.544665 0.277061
vt 0.543054 0.282372
vt 0.542510 0.287895
vt 0.543054 0.293418
vt 0.544665 0.298729
vt 0.547281 0.303624
vt 0.550802 0.307914
vt 0.555092 0.311435
vt 0.559987 0.314051
vt 0.565297 0.315662
vt 0.565297 0.432437
vt 0.559987 0.434048
vt 0.555092 0.436664
vt 0.550802 0.440185
vt 0.547281 0.444475
vt 0.544665 0.449369
vt 0.543054 0.454680
vt 0.542510 0.460203
vt 0.543054 0.465727
vt 0.544665 0.471037
vt 0.547281 0.475932
vt 0.550802 0.480222
vt 0.555092 0.483743
vt 0.559987 0.486359
vt 0.565297 0.487970
vt 0.570821 0.488514
vt 0.576344 0.487970
vt 0.581655 0.486359
vt 0.586549 0.483743
vt 0.590839 0.480222
vt 0.125000 0.500000
vt 0.875000 0.500000
vt 0.307001 0.635093
vt 0.304673 0.681904
vt 0.288376 0.568096
vt 0.211587 0.568096
vt 0.192666 0.635387
vt 0.125000 0.623903
vt 0.195149 0.681904
vt 0.968750 0.952129
vt 0.968750 0.500000
vt 1.000000 0.500000
vt 1.000000 0.952129
vt 0.937500 0.952129
vt 0.937500 0.500000
vt 0.906250 0.952129
vt 0.906250 0.500000
vt 0.937500 0.952129
vt 0.875000 0.952129
vt 0.843750 0.500000
vt 0.875000 0.952129
vt 0.843750 0.952129
vt 0.812500 0.500000
vt 0.843750 0.952129
vt 0.812500 0.952129
vt 0.781250 0.500000
vt 0.812500 0.952129
vt 0.781250 0.952129
vt 0.750000 0.500000
vt 0.781250 0.952129
vt 0.750000 0.952129
vt 0.718750 0.500000
vt 0.750000 0.952129
vt 0.718750 0.952129
vt 0.687500 0.500000
vt 0.687500 0.952129
vt 0.656250 0.500000
vt 0.656250 0.952129
vt 0.656250 0.952129
vt 0.625000 0.952129
vt 0.593750 0.500000
vt 0.625000 0.952129
vt 0.593750 0.952129
vt 0.562500 0.500000
vt 0.562500 0.952129
vt 0.531250 0.500000
vt 0.562500 0.952129
vt 0.531250 0.952129
vt 0.500000 0.500000
vt 0.531250 0.952129
vt 0.500000 0.952129
vt 0.468750 0.500000
vt 0.500000 0.952129
vt 0.468750 0.952129
vt 0.437500 0.500000
vt 0.468750 0.952129
vt 0.437500 0.952129
vt 0.406250 0.500000
vt 0.437500 0.952129
vt 0.406250 0.952129
vt 0.406250 0.952129
vt 0.375000 0.952129
vt 0.343750 0.500000
vt 0.343750 0.952129
vt 0.312500 0.500000
vt 0.343750 0.952129
vt 0.312500 0.952129
vt 0.281250 0.500000
vt 0.312500 0.952129
vt 0.281250 0.952129
vt 0.250000 0.500000
vt 0.281250 0.952129
vt 0.250000 0.952129
vt 0.218750 0.500000
vt 0.250000 0.952129
vt 0.218750 0.952129
vt 0.187500 0.500000
vt 0.218750 0.952129
vt 0.187500 0.952129
vt 0.156250 0.500000
vt 0.156250 0.952129
vt 0.156250 0.952129
vt 0.125000 0.952129
vt 0.093750 0.952129
vt 0.093750 0.500000
vt 0.062500 0.952129
vt 0.062500 0.500000
vt 0.093750 0.952129
vt 0.031250 0.952129
vt 0.031250 0.500000
vt 0.062500 0.952129
vt 0.000000 0.952129
vt 0.000000 0.500000
vt 0.031250 0.952129
vt 0.750000 0.490000
vt 0.796822 0.485388
vt 0.841844 0.471731
vt 0.883337 0.449553
vt 0.919706 0.419706
vt 0.949553 0.383337
vt 0.971731 0.341844
vt 0.985388 0.296822
vt 0.990000 0.250000
vt 0.703178 0.485388
vt 0.658156 0.028269
vt 0.616663 0.050447
vt 0.580294 0.080294
vt 0.550447 0.116663
vt 0.528269 0.158156
vt 0.514612 0.203178
vt 0.510000 0.250000
vt 1.000000 0.952129
vt 0.968750 0.952129
vt 0.906250 0.952129
vt 0.718750 0.952129
vt 0.625000 0.952129
vt 0.593750 0.952129
vt 0.562500 0.952129
vt 0.531250 0.952129
vt 0.500000 0.952129
vt 0.437500 0.952129
vt 0.375000 0.952129
vt 0.343750 0.952129
vt 0.218750 0.952129
vt 0.187500 0.952129
vt 0.187500 0.952129
vt 0.125000 0.952129
vt 0.062500 0.952129
vt 0.031250 0.952129
s 0
f 261/215/90 257/216/90 236/217/90 266/218/90
f 266/218/91 236/217/91 249/217/91 251/218/91
f 267/219/92 260/220/92 239/221/92 269/222/92
f 239/221/93 233/223/93 245/223/93 246/221/93
f 260/220/94 257/224/94 233/223/94 239/221/94
f 248/222/95 246/221/95 245/225/95 243/226/95
f 269/222/96 239/221/96 246/221/96 248/222/96
f 233/227/97 263/228/97 243/228/97 245/227/97
f 263/229/98 269/222/98 248/222/98 243/229/98
f 249/217/99 254/230/99 389/231/99 368/232/99 369/233/99 366/234/99 367/235/99 370/236/99 363/237/99 364/238/99 365/239/99 362/240/99 358/241/99 356/242/99 355/243/99 354/244/99 360/245/99 352/246/99 350/247/99 371/248/99 345/249/99 343/250/99 347/251/99 341/252/99 339/253/99 337/254/99
f 389/231/99 254/230/99 252/255/99 251/218/99 249/217/99 337/254/99 335/256/99 333/257/99 331/258/99 330/259/99 327/260/99 329/261/99 328/262/99 332/263/99 334/264/99 336/265/99 338/266/99 340/267/99 346/268/99 342/269/99 344/270/99 348/271/99 349/272/99 351/273/99 359/274/99 353/275/99 355/243/99 356/242/99 357/276/99 361/277/99 372/278/99 374/279/99 373/280/99 379/281/99 376/282/99 375/283/99 378/284/99 377/285/99 390/286/99 382/287/99 380/288/99 386/289/99 387/290/99 384/291/99 385/292/99 388/293/99 381/294/99 383/295/99
f 242/230/100 265/255/100 252/255/100 254/230/100
f 265/255/101 266/296/101 251/296/101 252/255/101
f 236/297/102 242/230/102 254/230/102 249/297/102
f 242/230/94 236/297/94 257/224/94 260/220/94
f 265/255/103 242/230/103 260/220/103 267/219/103
f 263/228/104 233/227/104 257/216/104 261/215/104
f 259/298/105 237/299/105 278/299/105 276/298/105
f 265/255/106 267/219/106 259/298/106 240/300/106 235/301/106 255/302/106 261/303/106 266/296/106
f 278/299/106 272/304/106 270/302/106 275/301/106 274/300/106 276/298/106
f 237/299/107 231/304/107 272/304/107 278/299/107
f 235/301/108 240/300/108 274/300/108 275/301/108
f 255/302/109 235/301/109 275/301/109 270/302/109
f 240/300/110 259/298/110 276/298/110 274/300/110
f 231/304/111 255/302/111 270/302/111 272/304/111
f 261/303/106 255/302/106 231/304/106 237/299/106 259/298/106 267/219/106 269/222/106 263/229/106
s 1
f 376/305/112 234/306/112 232/307/94 375/308/94
f 379/309/113 238/310/113 234/306/112 376/305/112
f 373/311/114 241/312/114 238/310/113 379/313/113
f 374/314/115 244/297/115 241/312/114 373/311/114
f 247/315/116 244/297/115 374/316/115 372/317/116
f 250/318/117 247/315/116 372/319/116 361/320/117
f 253/321/118 250/318/117 361/322/117 357/323/118
f 256/324/92 253/321/118 357/325/118 356/326/92
f 258/327/119 256/324/92 356/328/92 358/329/119
f 262/330/120 258/327/119 358/329/119 362/331/120
f 264/332/121 262/330/120 362/331/120 365/333/121
f 268/230/122 264/332/121 365/334/121 364/335/122
f 271/336/123 268/230/122 364/337/122 363/338/123
f 273/339/124 271/336/123 363/338/123 370/340/124
f 277/341/125 273/339/124 370/342/124 367/343/125
f 279/344/106 277/341/125 367/345/125 366/346/106
f 280/347/126 279/344/106 366/348/106 369/349/126
f 281/350/127 280/347/126 369/351/126 368/352/127
f 282/353/128 281/350/127 368/354/127 389/355/128
f 283/255/129 282/353/128 389/356/128 383/357/129
f 284/358/130 283/255/129 383/357/129 381/359/130
f 285/360/131 284/358/130 381/361/130 388/362/131
f 286/363/132 285/360/131 388/364/131 385/365/132
f 287/366/104 286/363/132 385/367/132 384/368/104
f 288/369/133 287/366/104 384/370/104 387/371/133
f 289/372/134 288/369/133 387/373/133 386/374/134
f 290/375/135 289/372/134 386/374/134 380/376/135
f 291/296/136 290/375/135 380/377/135 382/378/136
f 390/379/137 292/380/137 291/296/136 382/378/136
f 377/381/138 293/382/138 292/380/137 390/383/137
f 378/384/139 294/385/139 293/382/138 377/386/138
f 375/387/94 232/388/94 294/385/139 378/389/139
f 232/390/99 234/391/99 238/392/99 241/393/99 244/394/99 247/395/99 250/396/99 253/397/99 256/398/99 258/397/99 262/396/99 264/395/99 268/394/99 271/393/99 273/392/99 277/391/99 279/390/99 280/399/99 281/400/99 282/401/99 283/402/99 284/403/99 285/404/99 286/405/99 287/406/99 288/405/99 289/404/99 290/403/99 291/402/99 292/401/99 293/400/99 294/399/99
f 340/305/112 296/306/112 295/307/94 346/407/94
f 338/313/113 297/310/113 296/306/112 340/408/112
f 336/409/114 298/312/114 297/310/113 338/309/113
f 334/314/115 299/297/115 298/312/114 336/311/114
f 300/315/116 299/297/115 334/316/115 332/319/116
f 301/318/117 300/315/116 332/319/116 328/320/117
f 302/321/118 301/318/117 328/320/117 329/323/118
f 303/324/92 302/321/118 329/325/118 327/328/92
f 304/327/119 303/324/92 327/328/92 330/329/119
f 305/330/120 304/327/119 330/410/119 331/331/120
f 306/332/121 305/330/120 331/331/120 333/333/121
f 307/230/122 306/332/121 333/334/121 335/411/122
f 308/336/123 307/230/122 335/337/122 337/338/123
f 309/339/124 308/336/123 337/412/123 339/413/124
f 310/341/125 309/339/124 339/340/124 341/345/125
f 311/344/106 310/341/125 341/414/125 347/346/106
f 312/347/126 311/344/106 347/415/106 343/351/126
f 313/350/127 312/347/126 343/349/126 345/416/127
f 314/353/128 313/350/127 345/352/127 371/356/128
f 315/255/129 314/353/128 371/355/128 350/417/129
f 316/358/130 315/255/129 350/357/129 352/361/130
f 317/360/131 316/358/130 352/418/130 360/364/131
f 318/363/132 317/360/131 360/362/131 354/365/132
f 319/366/104 318/363/132 354/367/132 355/370/104
f 320/369/133 319/366/104 355/370/104 353/371/133
f 321/372/134 320/369/133 353/419/133 359/420/134
f 322/375/135 321/372/134 359/421/134 351/376/135
f 323/296/136 322/375/135 351/377/135 349/422/136
f 348/383/137 324/380/137 323/296/136 349/422/136
f 344/423/138 325/382/138 324/380/137 348/383/137
f 342/424/139 326/385/139 325/382/138 344/381/138
f 346/387/94 295/388/94 326/385/139 342/389/139
f 295/390/99 296/391/99 297/392/99 298/393/99 299/394/99 300/395/99 301/396/99 302/397/99 303/398/99 304/397/99 305/396/99 306/395/99 307/394/99 308/393/99 309/392/99 310/391/99 311/390/99 312/399/99 313/400/99 314/401/99 315/402/99 316/403/99 317/404/99 318/405/99 319/406/99 320/405/99 321/404/99 322/403/99 323/402/99 324/401/99 325/400/99 326/399/99
o X03
v 4.210880 4.585086 -3.722811
v 4.210880 4.585086 -9.679123
v 4.181705 4.587959 -3.722811
v 4.181705 4.587959 -9.679123
v 4.153652 4.596469 -3.722811
v 4.153652 4.596469 -9.679123
v 4.127798 4.610289 -3.722811
v 4.127798 4.610289 -9.679123
v 4.105136 4.628887 -3.722811
v 4.105136 4.628887 -9.679123
v 4.086538 4.651548 -3.722811
v 4.086538 4.651548 -9.679123
v 4.072719 4.677402 -3.722811
v 4.072719 4.677402 -9.679123
v 4.064209 4.705456 -3.722811
v 4.064209 4.705456 -9.679123
v 4.061336 4.734631 -3.722811
v 4.061336 4.734631 -9.679123
v 4.064209 4.763805 -3.722811
v 4.064209 4.763805 -9.679123
v 4.072719 4.791859 -3.722811
v 4.072719 4.791859 -9.679123
v 4.086538 4.817713 -3.722811
v 4.086538 4.817713 -9.679123
v 4.105136 4.840374 -3.722811
v 4.105136 4.840374 -9.679123
v 4.127798 4.858973 -3.722811
v 4.127798 4.858973 -9.679123
v 4.153652 4.872792 -3.722811
v 4.153652 4.872792 -9.679123
v 4.181705 4.881302 -3.722811
v 4.181705 4.881302 -9.679123
v 4.210880 4.884175 -3.722811
v 4.210880 4.884175 -9.679123
v 4.240055 4.881302 -3.722811
v 4.240055 4.881302 -9.679123
v 4.268108 4.872792 -3.722811
v 4.268108 4.872792 -9.679123
v 4.293963 4.858973 -3.722811
v 4.293963 4.858973 -9.679123
v 4.316624 4.840374 -3.722811
v 4.316624 4.840374 -9.679123
v 4.335222 4.817713 -3.722811
v 4.335222 4.817713 -9.679123
v 4.349041 4.791859 -3.722811
v 4.349041 4.791859 -9.679123
v 4.357552 4.763805 -3.722811
v 4.357552 4.763805 -9.679123
v 4.360425 4.734631 -3.722811
v 4.360425 4.734631 -9.679123
v 4.357552 4.705456 -3.722811
v 4.357552 4.705456 -9.679123
v 4.349041 4.677402 -3.722811
v 4.349041 4.677402 -9.679123
v 4.335222 4.651548 -3.722811
v 4.335222 4.651548 -9.679123
v 4.316624 4.628887 -3.722811
v 4.316624 4.628887 -9.679123
v 4.293963 4.610289 -3.722811
v 4.293963 4.610289 -9.679123
v 4.268108 4.596469 -3.722811
v 4.268108 4.596469 -9.679123
v 4.240055 4.587959 -3.722811
v 4.240055 4.587959 -9.679123
v 3.300703 4.585086 -3.722812
v 3.300703 4.585086 -9.679123
v 3.271528 4.587960 -3.722812
v 3.271528 4.587960 -9.679123
v 3.243475 4.596469 -3.722812
v 3.243475 4.596469 -9.679123
v 3.217621 4.610289 -3.722812
v 3.217621 4.610289 -9.679123
v 3.194959 4.628887 -3.722812
v 3.194959 4.628887 -9.679123
v 3.176362 4.651548 -3.722812
v 3.176362 4.651548 -9.679123
v 3.162542 4.677402 -3.722812
v 3.162542 4.677402 -9.679123
v 3.154032 4.705456 -3.722812
v 3.154032 4.705456 -9.679123
v 3.151159 4.734631 -3.722812
v 3.151159 4.734631 -9.679123
v 3.154032 4.763805 -3.722812
v 3.154032 4.763805 -9.679123
v 3.162542 4.791859 -3.722812
v 3.162542 4.791859 -9.679123
v 3.176362 4.817713 -3.722812
v 3.176362 4.817713 -9.679123
v 3.194959 4.840375 -3.722812
v 3.194959 4.840375 -9.679123
v 3.217621 4.858973 -3.722812
v 3.217621 4.858973 -9.679123
v 3.243475 4.872792 -3.722812
v 3.243475 4.872792 -9.679123
v 3.271528 4.881302 -3.722812
v 3.271528 4.881302 -9.679123
v 3.300703 4.884175 -3.722812
v 3.300703 4.884175 -9.679123
v 3.329878 4.881302 -3.722812
v 3.329878 4.881302 -9.679123
v 3.357932 4.872792 -3.722812
v 3.357932 4.872792 -9.679123
v 3.383786 4.858973 -3.722812
v 3.383786 4.858973 -9.679123
v 3.406447 4.840375 -3.722812
v 3.406447 4.840375 -9.679123
v 3.425045 4.817713 -3.722812
v 3.425045 4.817713 -9.679123
v 3.438864 4.791859 -3.722812
v 3.438864 4.791859 -9.679123
v 3.447374 4.763805 -3.722812
v 3.447374 4.763805 -9.679123
v 3.450248 4.734631 -3.722812
v 3.450248 4.734631 -9.679123
v 3.447374 4.705456 -3.722812
v 3.447374 4.705456 -9.679123
v 3.438864 4.677402 -3.722812
v 3.438864 4.677402 -9.679123
v 3.425045 4.651548 -3.722812
v 3.425045 4.651548 -9.679123
v 3.406447 4.628887 -3.722812
v 3.406447 4.628887 -9.679123
v 3.383786 4.610289 -3.722812
v 3.383786 4.610289 -9.679123
v 3.357932 4.596469 -3.722812
v 3.357932 4.596469 -9.679123
v 3.329878 4.587960 -3.722812
v 3.329878 4.587960 -9.679123
v 3.073801 4.746053 -10.330968
v 4.458183 4.746053 -10.330968
v 3.073801 4.676070 -10.324076
v 4.458183 4.676070 -10.324076
v 3.073801 4.608777 -10.303662
v 4.458183 4.608777 -10.303662
v 3.073801 4.546758 -10.270513
v 4.458183 4.546758 -10.270513
v 3.073801 4.492399 -10.225902
v 4.458183 4.492399 -10.225902
v 3.073801 4.447787 -10.171542
v 4.458183 4.447787 -10.171542
v 3.073801 4.414638 -10.109524
v 4.458183 4.414638 -10.109524
v 3.073801 4.394225 -10.042231
v 4.458183 4.394225 -10.042231
v 3.073801 4.387332 -9.972247
v 4.458183 4.387332 -9.972247
v 3.073801 4.394225 -9.902265
v 4.458183 4.394225 -9.902265
v 3.073801 4.414638 -9.834970
v 4.458183 4.414638 -9.834970
v 3.073801 4.447787 -9.772953
v 4.458183 4.447787 -9.772953
v 3.073801 4.492399 -9.718594
v 4.458183 4.492399 -9.718594
v 3.073801 4.546758 -9.673982
v 4.458183 4.546758 -9.673982
v 3.073801 4.608777 -9.640833
v 4.458183 4.608777 -9.640833
v 3.073801 4.676070 -9.620420
v 4.458183 4.676070 -9.620420
v 3.073801 4.746053 -9.613526
v 4.458183 4.746053 -9.613526
v 3.073801 4.816036 -9.620420
v 4.458183 4.816036 -9.620420
v 3.073801 4.883329 -9.640833
v 4.458183 4.883329 -9.640833
v 3.073801 4.945347 -9.673982
v 4.458183 4.945348 -9.673982
v 3.073801 4.999707 -9.718594
v 4.458183 4.999707 -9.718594
v 3.073801 5.044318 -9.772953
v 4.458183 5.044318 -9.772953
v 3.073801 5.077468 -9.834970
v 4.458183 5.077468 -9.834970
v 3.073801 5.097881 -9.902265
v 4.458183 5.097881 -9.902265
v 3.073801 5.104774 -9.972247
v 4.458183 5.104774 -9.972247
v 3.073801 5.097881 -10.042231
v 4.458183 5.097881 -10.042231
v 3.073801 5.077468 -10.109524
v 4.458183 5.077468 -10.109524
v 3.073801 5.044318 -10.171542
v 4.458183 5.044318 -10.171542
v 3.073801 4.999707 -10.225902
v 4.458183 4.999707 -10.225902
v 3.073801 4.945347 -10.270513
v 4.458183 4.945348 -10.270513
v 3.073801 4.883329 -10.303662
v 4.458183 4.883329 -10.303662
v 3.073801 4.816036 -10.324076
v 4.458183 4.816036 -10.324076
vn -0.0000 -1.0000 -0.0000
vn -0.1951 -0.9808 -0.0000
vn -0.3827 -0.9239 -0.0000
vn -0.5556 -0.8315 -0.0000
vn -0.7071 -0.7071 -0.0000
vn -0.8315 -0.5556 -0.0000
vn -0.9239 -0.3827 -0.0000
vn -0.9808 -0.1951 -0.0000
vn -1.0000 -0.0000 -0.0000
vn -0.9808 0.1951 -0.0000
vn -0.9239 0.3827 -0.0000
vn -0.8315 0.5556 -0.0000
vn -0.7071 0.7071 -0.0000
vn -0.5556 0.8315 -0.0000
vn -0.3827 0.9239 -0.0000
vn -0.1951 0.9808 -0.0000
vn -0.0000 1.0000 -0.0000
vn 0.1951 0.9808 -0.0000
vn 0.3827 0.9239 -0.0000
vn 0.5556 0.8315 -0.0000
vn 0.7071 0.7071 -0.0000
vn 0.8315 0.5556 -0.0000
vn 0.9239 0.3827 -0.0000
vn 0.9808 0.1951 -0.0000
vn 1.0000 -0.0000 -0.0000
vn 0.9808 -0.1951 -0.0000
vn 0.9239 -0.3827 -0.0000
vn 0.8315 -0.5556 -0.0000
vn 0.7071 -0.7071 -0.0000
vn 0.5556 -0.8315 -0.0000
vn 0.3827 -0.9239 -0.0000
vn -0.0000 -0.0000 -1.0000
vn 0.1951 -0.9808 -0.0000
vn -0.0000 -0.0000 1.0000
vn -0.0000 -0.1951 -0.9808
vn -0.0000 -0.3827 -0.9239
vn -0.0000 -0.5556 -0.8315
vn -0.0000 -0.7071 -0.7071
vn -0.0000 -0.8315 -0.5556
vn -0.0000 -0.9239 -0.3827
vn -0.0000 -0.9808 -0.1951
vn -0.0000 -0.9808 0.1951
vn -0.0000 -0.9239 0.3827
vn -0.0000 -0.8315 0.5556
vn -0.0000 -0.7071 0.7071
vn -0.0000 -0.5556 0.8315
vn -0.0000 -0.3827 0.9239
vn -0.0000 -0.1951 0.9808
vn -0.0000 0.1951 0.9808
vn -0.0000 0.3827 0.9239
vn -0.0000 0.5556 0.8315
vn -0.0000 0.7071 0.7071
vn -0.0000 0.8315 0.5556
vn -0.0000 0.9239 0.3827
vn -0.0000 0.9808 0.1951
vn -0.0000 0.9808 -0.1951
vn -0.0000 0.9239 -0.3827
vn -0.0000 0.8315 -0.5556
vn -0.0000 0.7071 -0.7071
vn -0.0000 0.5556 -0.8315
vn -0.0000 0.3827 -0.9239
vn -0.0000 0.1951 -0.9808
vt 1.000000 0.500000
vt 1.000000 1.000000
vt 0.968750 1.000000
vt 0.968750 0.500000
vt 0.937500 1.000000
vt 0.937500 0.500000
vt 0.906250 1.000000
vt 0.906250 0.500000
vt 0.875000 1.000000
vt 0.875000 0.500000
vt 0.843750 1.000000
vt 0.843750 0.500000
vt 0.812500 1.000000
vt 0.812500 0.500000
vt 0.781250 1.000000
vt 0.781250 0.500000
vt 0.750000 1.000000
vt 0.750000 0.500000
vt 0.718750 1.000000
vt 0.718750 0.500000
vt 0.687500 1.000000
vt 0.687500 0.500000
vt 0.656250 1.000000
vt 0.656250 0.500000
vt 0.625000 1.000000
vt 0.625000 0.500000
vt 0.593750 1.000000
vt 0.593750 0.500000
vt 0.562500 1.000000
vt 0.562500 0.500000
vt 0.531250 1.000000
vt 0.531250 0.500000
vt 0.500000 1.000000
vt 0.500000 0.500000
vt 0.468750 1.000000
vt 0.468750 0.500000
vt 0.437500 1.000000
vt 0.437500 0.500000
vt 0.406250 1.000000
vt 0.406250 0.500000
vt 0.375000 1.000000
vt 0.375000 0.500000
vt 0.343750 1.000000
vt 0.343750 0.500000
vt 0.312500 1.000000
vt 0.312500 0.500000
vt 0.281250 1.000000
vt 0.281250 0.500000
vt 0.250000 1.000000
vt 0.250000 0.500000
vt 0.218750 1.000000
vt 0.218750 0.500000
vt 0.187500 1.000000
vt 0.187500 0.500000
vt 0.156250 1.000000
vt 0.156250 0.500000
vt 0.125000 1.000000
vt 0.125000 0.500000
vt 0.093750 1.000000
vt 0.093750 0.500000
vt 0.062500 1.000000
vt 0.062500 0.500000
vt 0.296822 0.485388
vt 0.250000 0.490000
vt 0.203178 0.485388
vt 0.158156 0.471731
vt 0.116663 0.449553
vt 0.080294 0.419706
vt 0.050447 0.383337
vt 0.028269 0.341844
vt 0.014612 0.296822
vt 0.010000 0.250000
vt 0.014612 0.203178
vt 0.028269 0.158156
vt 0.050447 0.116663
vt 0.080294 0.080294
vt 0.116663 0.050447
vt 0.158156 0.028269
vt 0.203178 0.014612
vt 0.250000 0.010000
vt 0.296822 0.014612
vt 0.341844 0.028269
vt 0.383337 0.050447
vt 0.419706 0.080294
vt 0.449553 0.116663
vt 0.471731 0.158156
vt 0.485388 0.203178
vt 0.490000 0.250000
vt 0.485388 0.296822
vt 0.471731 0.341844
vt 0.449553 0.383337
vt 0.419706 0.419706
vt 0.383337 0.449553
vt 0.341844 0.471731
vt 0.031250 1.000000
vt 0.031250 0.500000
vt 0.000000 1.000000
vt 0.000000 0.500000
vt 0.750000 0.490000
vt 0.796822 0.485388
vt 0.841844 0.471731
vt 0.883337 0.449553
vt 0.919706 0.419706
vt 0.949553 0.383337
vt 0.971731 0.341844
vt 0.985388 0.296822
vt 0.990000 0.250000
vt 0.985388 0.203178
vt 0.971731 0.158156
vt 0.949553 0.116663
vt 0.919706 0.080294
vt 0.883337 0.050447
vt 0.841844 0.028269
vt 0.796822 0.014612
vt 0.750000 0.010000
vt 0.703178 0.014612
vt 0.658156 0.028269
vt 0.616663 0.050447
vt 0.580294 0.080294
vt 0.550447 0.116663
vt 0.528269 0.158156
vt 0.514612 0.203178
vt 0.510000 0.250000
vt 0.514612 0.296822
vt 0.528269 0.341844
vt 0.550447 0.383337
vt 0.580294 0.419706
vt 0.616663 0.449553
vt 0.658156 0.471731
vt 0.703178 0.485388
s 1
f 391/425/140 393/428/141 394/427/141 392/426/140
f 393/428/141 395/430/142 396/429/142 394/427/141
f 395/430/142 397/432/143 398/431/143 396/429/142
f 397/432/143 399/434/144 400/433/144 398/431/143
f 399/434/144 401/436/145 402/435/145 400/433/144
f 401/436/145 403/438/146 404/437/146 402/435/145
f 403/438/146 405/440/147 406/439/147 404/437/146
f 405/440/147 407/442/148 408/441/148 406/439/147
f 407/442/148 409/444/149 410/443/149 408/441/148
f 409/444/149 411/446/150 412/445/150 410/443/149
f 411/446/150 413/448/151 414/447/151 412/445/150
f 413/448/151 415/450/152 416/449/152 414/447/151
f 415/450/152 417/452/153 418/451/153 416/449/152
f 417/452/153 419/454/154 420/453/154 418/451/153
f 419/454/154 421/456/155 422/455/155 420/453/154
f 421/456/155 423/458/156 424/457/156 422/455/155
f 423/458/156 425/460/157 426/459/157 424/457/156
f 425/460/157 427/462/158 428/461/158 426/459/157
f 427/462/158 429/464/159 430/463/159 428/461/158
f 429/464/159 431/466/160 432/465/160 430/463/159
f 431/466/160 433/468/161 434/467/161 432/465/160
f 433/468/161 435/470/162 436/469/162 434/467/161
f 435/470/162 437/472/163 438/471/163 436/469/162
f 437/472/163 439/474/164 440/473/164 438/471/163
f 439/474/164 441/476/165 442/475/165 440/473/164
f 441/476/165 443/478/166 444/477/166 442/475/165
f 443/478/166 445/480/167 446/479/167 444/477/166
f 445/480/167 447/482/168 448/481/168 446/479/167
f 447/482/168 449/484/169 450/483/169 448/481/168
f 449/484/169 451/486/170 452/485/170 450/483/169
f 394/487/171 396/518/171 398/517/171 400/516/171 402/515/171 404/514/171 406/513/171 408/512/171 410/511/171 412/510/171 414/509/171 416/508/171 418/507/171 420/506/171 422/505/171 424/504/171 426/503/171 428/502/171 430/501/171 432/500/171 434/499/171 436/498/171 438/497/171 440/496/171 442/495/171 444/494/171 446/493/171 448/492/171 450/491/171 452/490/171 454/489/171 392/488/171
f 451/486/170 453/520/172 454/519/172 452/485/170
f 453/520/172 391/522/140 392/521/140 454/519/172
f 391/523/173 453/554/173 451/553/173 449/552/173 447/551/173 445/550/173 443/549/173 441/548/173 439/547/173 437/546/173 435/545/173 433/544/173 431/543/173 429/542/173 427/541/173 425/540/173 423/539/173 421/538/173 419/537/173 417/536/173 415/535/173 413/534/173 411/533/173 409/532/173 407/531/173 405/530/173 403/529/173 401/528/173 399/527/173 397/526/173 395/525/173 393/524/173
f 455/425/140 457/428/141 458/427/141 456/426/140
f 457/428/141 459/430/142 460/429/142 458/427/141
f 459/430/142 461/432/143 462/431/143 460/429/142
f 461/432/143 463/434/144 464/433/144 462/431/143
f 463/434/144 465/436/145 466/435/145 464/433/144
f 465/436/145 467/438/146 468/437/146 466/435/145
f 467/438/146 469/440/147 470/439/147 468/437/146
f 469/440/147 471/442/148 472/441/148 470/439/147
f 471/442/148 473/444/149 474/443/149 472/441/148
f 473/444/149 475/446/150 476/445/150 474/443/149
f 475/446/150 477/448/151 478/447/151 476/445/150
f 477/448/151 479/450/152 480/449/152 478/447/151
f 479/450/152 481/452/153 482/451/153 480/449/152
f 481/452/153 483/454/154 484/453/154 482/451/153
f 483/454/154 485/456/155 486/455/155 484/453/154
f 485/456/155 487/458/156 488/457/156 486/455/155
f 487/458/156 489/460/157 490/459/157 488/457/156
f 489/460/157 491/462/158 492/461/158 490/459/157
f 491/462/158 493/464/159 494/463/159 492/461/158
f 493/464/159 495/466/160 496/465/160 494/463/159
f 495/466/160 497/468/161 498/467/161 496/465/160
f 497/468/161 499/470/162 500/469/162 498/467/161
f 499/470/162 501/472/163 502/471/163 500/469/162
f 501/472/163 503/474/164 504/473/164 502/471/163
f 503/474/164 505/476/165 506/475/165 504/473/164
f 505/476/165 507/478/166 508/477/166 506/475/165
f 507/478/166 509/480/167 510/479/167 508/477/166
f 509/480/167 511/482/168 512/481/168 510/479/167
f 511/482/168 513/484/169 514/483/169 512/481/168
f 513/484/169 515/486/170 516/485/170 514/483/169
f 458/487/171 460/518/171 462/517/171 464/516/171 466/515/171 468/514/171 470/513/171 472/512/171 474/511/171 476/510/171 478/509/171 480/508/171 482/507/171 484/506/171 486/505/171 488/504/171 490/503/171 492/502/171 494/501/171 496/500/171 498/499/171 500/498/171 502/497/171 504/496/171 506/495/171 508/494/171 510/493/171 512/492/171 514/491/171 516/490/171 518/489/171 456/488/171
f 515/486/170 517/520/172 518/519/172 516/485/170
f 517/520/172 455/522/140 456/521/140 518/519/172
f 455/523/173 517/554/173 515/553/173 513/552/173 511/551/173 509/550/173 507/549/173 505/548/173 503/547/173 501/546/173 499/545/173 497/544/173 495/543/173 493/542/173 491/541/173 489/540/173 487/539/173 485/538/173 483/537/173 481/536/173 479/535/173 477/534/173 475/533/173 473/532/173 471/531/173 469/530/173 467/529/173 465/528/173 463/527/173 461/526/173 459/525/173 457/524/173
f 519/425/171 520/426/171 522/427/174 521/428/174
f 521/428/174 522/427/174 524/429/175 523/430/175
f 523/430/175 524/429/175 526/431/176 525/432/176
f 525/432/176 526/431/176 528/433/177 527/434/177
f 527/434/177 528/433/177 530/435/178 529/436/178
f 529/436/178 530/435/178 532/437/179 531/438/179
f 531/438/179 532/437/179 534/439/180 533/440/180
f 533/440/180 534/439/180 536/441/140 535/442/140
f 535/442/140 536/441/140 538/443/181 537/444/181
f 537/444/181 538/443/181 540/445/182 539/446/182
f 539/446/182 540/445/182 542/447/183 541/448/183
f 541/448/183 542/447/183 544/449/184 543/450/184
f 543/450/184 544/449/184 546/451/185 545/452/185
f 545/452/185 546/451/185 548/453/186 547/454/186
f 547/454/186 548/453/186 550/455/187 549/456/187
f 549/456/187 550/455/187 552/457/173 551/458/173
f 551/458/173 552/457/173 554/459/188 553/460/188
f 553/460/188 554/459/188 556/461/189 555/462/189
f 555/462/189 556/461/189 558/463/190 557/464/190
f 557/464/190 558/463/190 560/465/191 559/466/191
f 559/466/191 560/465/191 562/467/192 561/468/192
f 561/468/192 562/467/192 564/469/193 563/470/193
f 563/470/193 564/469/193 566/471/194 565/472/194
f 565/472/194 566/471/194 568/473/156 567/474/156
f 567/474/156 568/473/156 570/475/195 569/476/195
f 569/476/195 570/475/195 572/477/196 571/478/196
f 571/478/196 572/477/196 574/479/197 573/480/197
f 573/480/197 574/479/197 576/481/198 575/482/198
f 575/482/198 576/481/198 578/483/199 577/484/199
f 577/484/199 578/483/199 580/485/200 579/486/200
f 522/487/164 520/488/164 582/489/164 580/490/164 578/491/164 576/492/164 574/493/164 572/494/164 570/495/164 568/496/164 566/497/164 564/498/164 562/499/164 560/500/164 558/501/164 556/502/164 554/503/164 552/504/164 550/505/164 548/506/164 546/507/164 544/508/164 542/509/164 540/510/164 538/511/164 536/512/164 534/513/164 532/514/164 530/515/164 528/516/164 526/517/164 524/518/164
f 579/486/200 580/485/200 582/519/201 581/520/201
f 581/520/201 582/519/201 520/521/171 519/522/171
f 519/523/148 521/524/148 523/525/148 525/526/148 527/527/148 529/528/148 531/529/148 533/530/148 535/531/148 537/532/148 539/533/148 541/534/148 543/535/148 545/536/148 547/537/148 549/538/148 551/539/148 553/540/148 555/541/148 557/542/148 559/543/148 561/544/148 563/545/148 565/546/148 567/547/148 569/548/148 571/549/148 573/550/148 575/551/148 577/552/148 579/553/148 581/554/148
